<svg version="1.1" viewBox="0.0 0.0 960.0 354.0" fill="none" stroke="none" stroke-linecap="square" stroke-miterlimit="10" xmlns:xlink="http://www.w3.org/1999/xlink" xmlns="http://www.w3.org/2000/svg"><clipPath id="p.0"><path d="m0 0l960.0 0l0 354.0l-960.0 0l0 -354.0z" clip-rule="nonzero"/></clipPath><g clip-path="url(#p.0)"><path fill="#000000" fill-opacity="0.0" d="m0 0l960.0 0l0 354.0l-960.0 0z" fill-rule="evenodd"/><path fill="#000000" fill-opacity="0.0" d="m0 0l960.0 0l0 236.7559l-960.0 0z" fill-rule="evenodd"/><path fill="#e43056" d="m115.51666 117.803116q1.765625 0 2.953125 1.28125q1.203125 1.28125 1.203125 3.03125q0 1.609375 -1.203125 2.8125q-1.1875 1.1875 -2.953125 1.1875l-0.953125 0q-9.609375 0.171875 -13.765625 6.484375q-4.15625 6.3125 -4.15625 16.71875l0 13.59375q0 8.0 -2.640625 13.046875q-2.640625 5.046875 -8.890625 9.125q-6.234375 4.078125 -18.703125 9.359375q-0.328125 0.15625 -1.28125 0.15625q-1.921875 0 -2.890625 -1.125q-0.953125 -1.109375 -0.953125 -2.5625q0 -1.265625 0.875 -2.3125q0.875 -1.046875 2.484375 -1.515625q9.765625 -3.046875 14.5625 -6.171875q4.796875 -3.109375 6.46875 -7.515625q1.6875 -4.390625 1.6875 -11.921875l0 -13.109375q0 -10.078125 3.921875 -17.28125q3.921875 -7.203125 10.953125 -9.125q-7.203125 -2.078125 -11.046875 -9.109375q-3.828125 -7.046875 -3.828125 -17.296875l0 -13.109375q0 -7.53125 -1.6875 -11.921875q-1.671875 -4.40625 -6.5625 -7.59375q-4.875 -3.203125 -14.46875 -6.09375q-1.609375 -0.46875 -2.484375 -1.671875q-0.875 -1.203125 -0.71875 -2.796875q0.328125 -1.28125 1.28125 -2.15625q0.953125 -0.890625 2.234375 -0.890625l1.453125 0.15625q12.15625 2.5625 18.796875 6.890625q6.640625 4.3125 9.03125 10.234375q2.40625 5.921875 2.40625 14.40625l0 13.59375q0 10.234375 4.3125 16.71875q4.328125 6.484375 13.609375 6.484375l0.953125 0zm21.445038 7.84375q-2.078125 0 -3.359375 -1.359375q-1.28125 -1.375 -1.28125 -3.453125q0 -2.078125 1.28125 -3.359375q1.28125 -1.28125 3.359375 -1.28125l34.5625 0q2.078125 0 3.4375 1.453125q1.359375 1.4375 1.359375 3.515625q0 1.921875 -1.359375 3.203125q-1.359375 1.28125 -3.4375 1.28125l-34.5625 0zm107.040665 61.59375q1.59375 0.484375 2.390625 1.671875q0.8125 1.203125 0.640625 2.8125q-0.15625 1.28125 -1.125 2.15625q-0.953125 0.875 -2.390625 0.875l-1.4375 -0.15625q-12.15625 -2.5625 -18.71875 -6.890625q-6.5625 -4.3125 -9.046875 -10.234375q-2.46875 -5.921875 -2.46875 -14.390625l0.15625 -13.609375q0 -10.234375 -4.328125 -16.703125q-4.3125 -6.484375 -13.75 -6.65625l-0.796875 0q-1.765625 0 -3.046875 -1.1875q-1.28125 -1.203125 -1.28125 -2.96875q0 -1.59375 1.28125 -2.796875q1.28125 -1.203125 3.046875 -1.203125l0.953125 0q9.59375 -0.15625 13.75 -6.46875q4.171875 -6.328125 4.171875 -16.734375l-0.15625 -13.59375q0 -9.765625 3.59375 -15.84375q3.59375 -6.078125 10.0 -9.515625q6.40625 -3.4375 16.484375 -6.0q1.28125 -0.328125 1.75 -0.328125q1.765625 0 2.640625 1.125q0.890625 1.125 0.890625 2.5625q0 1.28125 -0.890625 2.328125q-0.875 1.03125 -2.3125 1.515625q-9.765625 3.03125 -14.5625 6.15625q-4.796875 3.125 -6.5625 7.53125q-1.75 4.390625 -1.75 11.90625l0.15625 13.125q0 9.921875 -3.921875 17.046875q-3.921875 7.109375 -10.796875 9.1875q7.03125 2.40625 10.875 9.453125q3.84375 7.03125 3.84375 16.953125l-0.15625 13.28125q0 7.515625 1.671875 11.90625q1.6875 4.40625 6.5625 7.609375q4.875 3.203125 14.640625 6.078125zm97.91377 -65.59375q0 12.0 -5.28125 21.765625q-5.28125 9.75 -14.5625 15.265625q-9.265625 5.515625 -20.625 5.515625q-11.375 0 -20.65625 -5.515625q-9.265625 -5.515625 -14.546875 -15.265625q-5.28125 -9.765625 -5.28125 -21.765625q0 -12.0 5.28125 -21.765625q5.28125 -9.765625 14.546875 -15.359375q9.28125 -5.609375 20.65625 -5.609375q11.359375 0 20.625 5.609375q9.28125 5.59375 14.5625 15.359375q5.28125 9.765625 5.28125 21.765625zm-9.59375 0q0 -9.609375 -4.0 -17.28125q-4.0 -7.6875 -11.125 -12.078125q-7.125 -4.40625 -15.75 -4.40625q-8.640625 0 -15.6875 4.40625q-7.046875 4.390625 -11.125 12.078125q-4.078125 7.671875 -4.078125 17.28125q0 9.4375 4.078125 17.125q4.078125 7.671875 11.125 12.078125q7.046875 4.390625 15.6875 4.390625q8.625 0 15.75 -4.3125q7.125 -4.328125 11.125 -12.0q4.0 -7.6875 4.0 -17.28125z" fill-rule="nonzero"/><path fill="#0f5595" d="m440.63998 78.91249q7.515625 0 14.0 1.6875q6.484375 1.6875 10.390625 4.5625q3.921875 2.875 3.921875 6.234375q0 1.765625 -1.203125 3.203125q-1.1875 1.4375 -2.953125 1.4375q-1.59375 0 -2.640625 -0.640625q-1.03125 -0.640625 -2.3125 -1.921875q-2.078125 -2.078125 -4.0 -3.03125q-2.40625 -1.125 -6.328125 -1.84375q-3.921875 -0.71875 -8.390625 -0.71875q-8.796875 0 -16.078125 4.484375q-7.28125 4.46875 -11.453125 12.15625q-4.15625 7.671875 -4.15625 16.953125q0 9.609375 4.0 17.296875q4.0 7.671875 11.125 12.078125q7.125 4.390625 16.234375 4.390625q5.765625 0 9.203125 -0.953125q3.4375 -0.96875 6.796875 -2.734375q1.125 -0.640625 3.84375 -2.875q1.28125 -1.125 2.234375 -1.671875q0.96875 -0.5625 2.078125 -0.5625q1.921875 0 3.046875 1.203125q1.125 1.1875 1.125 3.109375q0 2.71875 -3.84375 5.84375q-3.84375 3.125 -10.5625 5.359375q-6.71875 2.234375 -14.875 2.234375q-11.6875 0 -20.8125 -5.515625q-9.109375 -5.515625 -14.15625 -15.265625q-5.03125 -9.765625 -5.03125 -21.9375q0 -11.671875 5.109375 -21.34375q5.125 -9.6875 14.40625 -15.453125q9.28125 -5.765625 21.28125 -5.765625zm122.39627 42.734375q0 12.0 -5.28125 21.765625q-5.28125 9.75 -14.5625 15.265625q-9.265625 5.515625 -20.625 5.515625q-11.3749695 0 -20.65622 -5.515625q-9.265625 -5.515625 -14.546875 -15.265625q-5.28125 -9.765625 -5.28125 -21.765625q0 -12.0 5.28125 -21.765625q5.28125 -9.765625 14.546875 -15.359375q9.28125 -5.609375 20.65622 -5.609375q11.359375 0 20.625 5.609375q9.28125 5.59375 14.5625 15.359375q5.28125 9.765625 5.28125 21.765625zm-9.59375 0q0 -9.609375 -4.0 -17.28125q-4.0 -7.6875 -11.125 -12.078125q-7.125 -4.40625 -15.75 -4.40625q-8.640625 0 -15.6874695 4.40625q-7.046875 4.390625 -11.125 12.078125q-4.078125 7.671875 -4.078125 17.28125q0 9.4375 4.078125 17.125q4.078125 7.671875 11.125 12.078125q7.0468445 4.390625 15.6874695 4.390625q8.625 0 15.75 -4.3125q7.125 -4.328125 11.125 -12.0q4.0 -7.6875 4.0 -17.28125zm95.68445 -77.453125q2.078125 0 3.4375 1.359375q1.359375 1.359375 1.359375 3.453125l0 108.796875q0 2.078125 -1.359375 3.4375q-1.359375 1.359375 -3.4375 1.359375q-2.09375 0 -3.453125 -1.359375q-1.359375 -1.359375 -1.359375 -3.4375l0 -11.203125q-4.0 7.359375 -11.921875 12.484375q-7.90625 5.109375 -17.515625 5.109375q-10.5625 0 -19.125 -5.515625q-8.546875 -5.515625 -13.515625 -15.265625q-4.953125 -9.765625 -4.953125 -21.9375q0 -12.0 4.953125 -21.75q4.96875 -9.765625 13.515625 -15.28125q8.5625 -5.53125 18.96875 -5.53125q9.4375 0 17.4375 4.734375q8.0 4.71875 12.15625 12.234375l0 -46.875q0 -2.09375 1.359375 -3.453125q1.359375 -1.359375 3.453125 -1.359375zm-33.28125 111.046875q8.3125 0 14.953125 -4.3125q6.640625 -4.328125 10.390625 -12.078125q3.765625 -7.765625 3.765625 -17.375q0 -9.4375 -3.765625 -17.109375q-3.75 -7.6875 -10.390625 -12.078125q-6.640625 -4.40625 -14.953125 -4.40625q-8.328125 0 -14.96875 4.40625q-6.640625 4.390625 -10.40625 12.078125q-3.75 7.671875 -3.75 17.109375q0 9.609375 3.75 17.296875q3.765625 7.671875 10.40625 12.078125q6.640625 4.390625 14.96875 4.390625zm129.60132 -74.40625q2.078125 0 3.4375 1.453125q1.359375 1.4375 1.359375 3.515625l0 72.0q0 2.078125 -1.359375 3.4375q-1.359375 1.359375 -3.4375 1.359375q-2.09375 0 -3.453125 -1.359375q-1.359375 -1.359375 -1.359375 -3.4375l0 -10.71875q-4.0 7.203125 -12.0 12.15625q-8.0 4.953125 -17.4375 4.953125q-10.71875 0 -19.28125 -5.59375q-8.5625 -5.59375 -13.4375 -15.359375q-4.875 -9.765625 -4.875 -21.921875q0 -12.15625 4.953125 -21.828125q4.96875 -9.6875 13.515625 -15.125q8.5625 -5.453125 18.96875 -5.453125q9.59375 0 17.59375 4.640625q8.0 4.640625 12.0 12.171875l0 -9.921875q0 -2.078125 1.359375 -3.515625q1.359375 -1.453125 3.453125 -1.453125zm-33.28125 74.40625q8.3125 0 14.953125 -4.390625q6.640625 -4.40625 10.390625 -12.171875q3.765625 -7.765625 3.765625 -17.359375q0 -9.28125 -3.765625 -16.953125q-3.75 -7.6875 -10.390625 -12.078125q-6.640625 -4.40625 -14.953125 -4.40625q-8.328125 0 -14.96875 4.328125q-6.640625 4.3125 -10.40625 11.921875q-3.75 7.59375 -3.75 17.1875q0 9.59375 3.671875 17.359375q3.6875 7.765625 10.328125 12.171875q6.640625 4.390625 15.125 4.390625zm64.47632 7.359375q-2.71875 0 -4.171875 -1.671875q-1.4375 -1.6875 -1.4375 -4.5625l0 -3.359375q0 -2.890625 1.4375 -4.484375q1.453125 -1.609375 4.171875 -1.609375l1.125 0q2.71875 0 4.15625 1.609375q1.4375 1.59375 1.4375 4.484375l0 3.359375q0 2.875 -1.4375 4.5625q-1.4375 1.671875 -4.15625 1.671875l-1.125 0zm16.319336 31.6875q-1.921875 0 -3.203125 -1.28125q-1.28125 -1.28125 -1.28125 -3.203125l0 -0.640625q0 -1.765625 1.125 -2.96875q1.125 -1.1875 3.03125 -1.515625q5.921875 -1.125 9.84375 -5.203125q3.921875 -4.078125 3.921875 -10.953125l0 -82.5625q0 -2.078125 1.359375 -3.4375q1.359375 -1.359375 3.4375 -1.359375q2.078125 0 3.4375 1.359375q1.359375 1.359375 1.359375 3.4375l0 84.0q0 7.359375 -3.4375 12.875q-3.4375 5.53125 -8.796875 8.484375q-5.359375 2.96875 -10.796875 2.96875zm18.234375 -125.765625q-3.203125 0 -4.96875 -1.515625q-1.75 -1.53125 -1.75 -4.40625l0 -1.59375q0 -2.890625 1.84375 -4.40625q1.84375 -1.515625 5.03125 -1.515625q6.40625 0 6.40625 5.921875l0 1.59375q0 2.875 -1.6875 4.40625q-1.671875 1.515625 -4.875 1.515625zm27.044434 81.125q-1.28125 -2.09375 -1.28125 -3.53125q0 -2.078125 2.078125 -3.203125q0.96875 -0.953125 2.5625 -0.953125q1.921875 0 3.515625 1.59375q9.4375 12.484375 25.125 12.484375q7.6875 0 13.359375 -3.59375q5.6875 -3.609375 5.6875 -10.484375q0 -6.71875 -5.28125 -10.078125q-5.28125 -3.359375 -14.71875 -5.765625q-13.28125 -3.359375 -20.8125 -8.71875q-7.515625 -5.359375 -7.515625 -15.75q0 -6.5625 3.671875 -11.765625q3.6875 -5.203125 10.0 -8.078125q6.328125 -2.890625 14.328125 -2.890625q6.875 0 13.828125 2.640625q6.96875 2.640625 11.9375 8.40625q1.4375 1.125 1.4375 3.203125q0 1.921875 -1.609375 3.359375q-1.109375 0.953125 -2.875 0.953125q-1.59375 0 -2.875 -1.28125q-3.84375 -4.3125 -9.125 -6.546875q-5.28125 -2.25 -11.359375 -2.25q-7.515625 0 -12.875 3.53125q-5.359375 3.515625 -5.359375 10.546875q0.3125 6.40625 5.828125 9.765625q5.53125 3.359375 16.25 6.078125q8.3125 2.078125 13.75 4.640625q5.453125 2.5625 8.890625 7.203125q3.4375 4.640625 3.4375 12.3125q0 10.40625 -8.328125 16.5625q-8.3125 6.15625 -20.625 6.15625q-19.53125 0 -31.046875 -14.546875z" fill-rule="nonzero"/><path fill="#000000" fill-opacity="0.0" d="m0 209.99213l960.0 0l0 115.1181l-960.0 0z" fill-rule="evenodd"/><path fill="#343b41" d="m68.83386 289.1769q0 0.828125 -0.546875 1.375q-0.546875 0.546875 -1.375 0.546875q-0.828125 0 -1.375 -0.546875q-0.546875 -0.546875 -0.546875 -1.375l0 -43.515625q0 -0.828125 0.546875 -1.375q0.546875 -0.546875 1.375 -0.546875q0.828125 0 1.375 0.546875q0.546875 0.546875 0.546875 1.375l0 43.515625zm14.204346 0q0 0.828125 -0.546875 1.375q-0.53125 0.546875 -1.375 0.546875q-0.828125 0 -1.375 -0.546875q-0.546875 -0.546875 -0.546875 -1.375l0 -29.4375q0 -0.828125 0.546875 -1.375q0.546875 -0.546875 1.375 -0.546875q0.84375 0 1.375 0.546875q0.546875 0.546875 0.546875 1.375l0 29.4375zm-1.59375 -35.703125q-1.28125 0 -1.984375 -0.609375q-0.703125 -0.609375 -0.703125 -1.765625l0 -0.640625q0 -1.15625 0.734375 -1.765625q0.734375 -0.609375 2.015625 -0.609375q2.5625 0 2.5625 2.375l0 0.640625q0 1.15625 -0.671875 1.765625q-0.671875 0.609375 -1.953125 0.609375zm36.289734 4.28125q0.640625 0 1.203125 0.453125q0.578125 0.4375 0.578125 1.140625q0 0.578125 -0.25 1.09375l-12.546875 29.4375q-0.25 0.515625 -0.734375 0.875q-0.484375 0.34375 -0.984375 0.34375q-0.640625 0.0625 -1.15625 -0.25q-0.515625 -0.328125 -0.765625 -0.96875l-12.609375 -29.4375q0 -0.125 -0.109375 -0.375q-0.09375 -0.265625 -0.09375 -0.515625q0 -0.765625 0.515625 -1.3125q0.515625 -0.546875 1.46875 -0.546875q0.578125 0 1.0625 0.359375q0.484375 0.34375 0.734375 0.921875l10.875 25.921875l10.953125 -25.921875q0.25 -0.578125 0.734375 -0.921875q0.484375 -0.359375 1.125 -0.296875zm36.79344 15.109375q0 0.765625 -0.578125 1.3125q-0.578125 0.53125 -1.34375 0.53125l-24.1875 0q0 3.84375 1.5625 6.890625q1.578125 3.03125 4.484375 4.796875q2.90625 1.765625 6.875 1.765625q3.078125 0 5.5 -1.28125q2.4375 -1.28125 3.90625 -3.265625q0.703125 -0.578125 1.34375 -0.578125q0.640625 0 1.15625 0.515625q0.515625 0.5 0.515625 1.140625q0 0.703125 -0.640625 1.34375q-2.046875 2.5 -5.15625 4.109375q-3.09375 1.59375 -6.5625 1.59375q-4.921875 0 -8.703125 -2.109375q-3.765625 -2.109375 -5.890625 -5.921875q-2.109375 -3.8125 -2.109375 -8.796875q0 -5.25 2.078125 -9.1875q2.09375 -3.9375 5.546875 -6.015625q3.453125 -2.078125 7.359375 -2.078125q3.84375 0 7.203125 1.796875q3.359375 1.78125 5.46875 5.25q2.109375 3.453125 2.171875 8.1875zm-14.84375 -11.53125q-3.71875 0 -6.890625 2.5625q-3.15625 2.5625 -4.0625 7.359375l21.828125 0l0 -0.515625q-0.3125 -2.875 -1.921875 -5.015625q-1.59375 -2.140625 -4.0 -3.265625q-2.390625 -1.125 -4.953125 -1.125zm23.287064 14.984375q-0.828125 0 -1.34375 -0.546875q-0.5 -0.546875 -0.5 -1.375q0 -0.828125 0.5 -1.34375q0.515625 -0.515625 1.34375 -0.515625l13.828125 0q0.828125 0 1.375 0.578125q0.546875 0.578125 0.546875 1.40625q0 0.765625 -0.546875 1.28125q-0.546875 0.515625 -1.375 0.515625l-13.828125 0zm38.600586 -18.6875q3.0 0 5.59375 0.671875q2.59375 0.671875 4.15625 1.828125q1.578125 1.140625 1.578125 2.484375q0 0.703125 -0.484375 1.28125q-0.484375 0.578125 -1.1875 0.578125q-0.640625 0 -1.0625 -0.25q-0.40625 -0.265625 -0.921875 -0.765625q-0.828125 -0.84375 -1.59375 -1.21875q-0.96875 -0.453125 -2.53125 -0.734375q-1.5625 -0.296875 -3.359375 -0.296875q-3.515625 0 -6.4375 1.796875q-2.90625 1.796875 -4.578125 4.875q-1.65625 3.0625 -1.65625 6.765625q0 3.84375 1.59375 6.921875q1.609375 3.0625 4.453125 4.828125q2.84375 1.765625 6.5 1.765625q2.296875 0 3.671875 -0.390625q1.375 -0.390625 2.71875 -1.09375q0.453125 -0.25 1.546875 -1.140625q0.515625 -0.453125 0.890625 -0.671875q0.390625 -0.234375 0.828125 -0.234375q0.78125 0 1.21875 0.484375q0.453125 0.484375 0.453125 1.25q0 1.09375 -1.546875 2.34375q-1.53125 1.234375 -4.21875 2.140625q-2.6875 0.890625 -5.953125 0.890625q-4.671875 0 -8.328125 -2.203125q-3.640625 -2.21875 -5.65625 -6.109375q-2.015625 -3.90625 -2.015625 -8.78125q0 -4.671875 2.046875 -8.53125q2.046875 -3.875 5.765625 -6.171875q3.71875 -2.3125 8.515625 -2.3125zm48.95845 17.078125q0 4.8125 -2.109375 8.71875q-2.109375 3.890625 -5.828125 6.109375q-3.71875 2.203125 -8.25 2.203125q-4.546875 0 -8.265625 -2.203125q-3.703125 -2.21875 -5.828125 -6.109375q-2.109375 -3.90625 -2.109375 -8.71875q0 -4.796875 2.109375 -8.6875q2.125 -3.90625 5.828125 -6.140625q3.71875 -2.25 8.265625 -2.25q4.53125 0 8.25 2.25q3.71875 2.234375 5.828125 6.140625q2.109375 3.890625 2.109375 8.6875zm-3.84375 0q0 -3.828125 -1.609375 -6.90625q-1.59375 -3.078125 -4.4375 -4.828125q-2.84375 -1.765625 -6.296875 -1.765625q-3.46875 0 -6.28125 1.765625q-2.8125 1.75 -4.453125 4.828125q-1.625 3.078125 -1.625 6.90625q0 3.78125 1.625 6.859375q1.640625 3.0625 4.453125 4.828125q2.8125 1.765625 6.28125 1.765625q3.453125 0 6.296875 -1.734375q2.84375 -1.734375 4.4375 -4.796875q1.609375 -3.078125 1.609375 -6.921875zm38.26744 -30.96875q0.84375 0 1.375 0.546875q0.546875 0.546875 0.546875 1.375l0 43.515625q0 0.828125 -0.546875 1.375q-0.53125 0.546875 -1.375 0.546875q-0.828125 0 -1.375 -0.546875q-0.53125 -0.546875 -0.53125 -1.375l0 -4.484375q-1.609375 2.953125 -4.78125 5.0q-3.15625 2.046875 -7.0 2.046875q-4.21875 0 -7.65625 -2.203125q-3.421875 -2.21875 -5.40625 -6.109375q-1.984375 -3.90625 -1.984375 -8.78125q0 -4.796875 1.984375 -8.703125q1.984375 -3.90625 5.40625 -6.109375q3.4375 -2.203125 7.59375 -2.203125q3.765625 0 6.96875 1.890625q3.203125 1.875 4.875 4.890625l0 -18.75q0 -0.828125 0.53125 -1.375q0.546875 -0.546875 1.375 -0.546875zm-13.3125 44.421875q3.328125 0 5.984375 -1.734375q2.65625 -1.734375 4.15625 -4.828125q1.515625 -3.109375 1.515625 -6.953125q0 -3.765625 -1.515625 -6.84375q-1.5 -3.078125 -4.15625 -4.828125q-2.65625 -1.765625 -5.984375 -1.765625q-3.328125 0 -5.984375 1.765625q-2.65625 1.75 -4.15625 4.828125q-1.5 3.078125 -1.5 6.84375q0 3.84375 1.5 6.921875q1.5 3.0625 4.15625 4.828125q2.65625 1.765625 5.984375 1.765625zm28.996704 1.015625q0 0.828125 -0.546875 1.375q-0.53125 0.546875 -1.375 0.546875q-0.828125 0 -1.375 -0.546875q-0.546875 -0.546875 -0.546875 -1.375l0 -29.4375q0 -0.828125 0.546875 -1.375q0.546875 -0.546875 1.375 -0.546875q0.84375 0 1.375 0.546875q0.546875 0.546875 0.546875 1.375l0 29.4375zm-1.59375 -35.703125q-1.28125 0 -1.984375 -0.609375q-0.703125 -0.609375 -0.703125 -1.765625l0 -0.640625q0 -1.15625 0.734375 -1.765625q0.734375 -0.609375 2.015625 -0.609375q2.5625 0 2.5625 2.375l0 0.640625q0 1.15625 -0.671875 1.765625q-0.671875 0.609375 -1.953125 0.609375zm27.008484 4.15625q5.953125 0 8.734375 3.484375q2.78125 3.484375 2.78125 9.25l0 18.8125q0 0.828125 -0.578125 1.375q-0.578125 0.546875 -1.34375 0.546875q-0.828125 0 -1.375 -0.546875q-0.546875 -0.546875 -0.546875 -1.375l0 -18.625q0 -4.15625 -2.078125 -6.75q-2.078125 -2.59375 -6.4375 -2.59375q-2.75 0 -5.21875 1.28125q-2.453125 1.28125 -4.0 3.421875q-1.53125 2.140625 -1.53125 4.640625l0 18.625q0 0.828125 -0.546875 1.375q-0.53125 0.546875 -1.375 0.546875q-0.828125 0 -1.375 -0.546875q-0.53125 -0.546875 -0.53125 -1.375l0 -28.671875q0 -0.828125 0.53125 -1.375q0.546875 -0.546875 1.375 -0.546875q0.84375 0 1.375 0.546875q0.546875 0.546875 0.546875 1.375l0 3.515625q1.734375 -2.75 4.96875 -4.5625q3.234375 -1.828125 6.625 -1.828125zm49.210693 0.765625q0.828125 0 1.375 0.546875q0.546875 0.546875 0.546875 1.4375l0 27.703125q0 5.0 -2.078125 8.546875q-2.078125 3.5625 -5.703125 5.40625q-3.609375 1.859375 -8.28125 1.859375q-2.25 0 -4.71875 -0.578125q-2.453125 -0.578125 -4.21875 -1.46875q-1.75 -0.890625 -2.015625 -1.859375q-0.4375 -0.4375 -0.4375 -1.015625q0 -0.640625 0.578125 -1.03125q0.25 -0.1875 0.640625 -0.1875q0.375 0 1.46875 0.453125l1.34375 0.578125q3.96875 1.53125 7.421875 1.53125q5.6875 0 8.921875 -3.234375q3.234375 -3.234375 3.234375 -8.734375l0 -3.96875q-1.59375 3.453125 -5.0625 5.40625q-3.453125 1.953125 -7.21875 1.953125q-4.421875 0 -7.984375 -2.203125q-3.546875 -2.21875 -5.59375 -6.109375q-2.046875 -3.90625 -2.046875 -8.78125q0 -4.796875 2.046875 -8.703125q2.046875 -3.90625 5.59375 -6.109375q3.5625 -2.203125 7.921875 -2.203125q4.03125 0 7.390625 2.015625q3.359375 2.015625 4.953125 4.828125l0 -4.09375q0 -0.828125 0.546875 -1.40625q0.546875 -0.578125 1.375 -0.578125zm-13.890625 29.765625q3.53125 0 6.3125 -1.703125q2.78125 -1.703125 4.34375 -4.796875q1.578125 -3.109375 1.578125 -7.015625q0 -3.90625 -1.578125 -6.96875q-1.5625 -3.078125 -4.34375 -4.765625q-2.78125 -1.703125 -6.3125 -1.703125q-3.453125 0 -6.234375 1.765625q-2.78125 1.75 -4.359375 4.828125q-1.5625 3.078125 -1.5625 6.84375q0 3.84375 1.5625 6.921875q1.578125 3.0625 4.359375 4.828125q2.78125 1.765625 6.234375 1.765625zm49.79254 -26.046875l0 21.4375q0 2.421875 0.890625 3.296875q0.90625 0.859375 2.375 0.859375q0.390625 0 0.953125 -0.15625q0.578125 -0.171875 0.90625 -0.171875q0.578125 0 0.984375 0.484375q0.421875 0.484375 0.421875 1.125q0 0.890625 -1.03125 1.5q-1.015625 0.609375 -2.421875 0.609375q-1.734375 0 -3.078125 -0.3125q-1.34375 -0.328125 -2.59375 -1.921875q-1.25 -1.609375 -1.25 -5.125l0 -21.625l-4.671875 0q-0.765625 0 -1.3125 -0.515625q-0.53125 -0.515625 -0.53125 -1.28125q0 -0.765625 0.53125 -1.28125q0.546875 -0.515625 1.3125 -0.515625l4.671875 0l0 -7.109375q0 -0.828125 0.546875 -1.359375q0.546875 -0.546875 1.375 -0.546875q0.84375 0 1.375 0.546875q0.546875 0.53125 0.546875 1.359375l0 7.109375l6.40625 0q0.703125 0 1.234375 0.578125q0.546875 0.578125 0.546875 1.28125q0 0.765625 -0.515625 1.25q-0.5 0.484375 -1.265625 0.484375l-6.40625 0zm30.211609 -3.96875q5.765625 0 8.578125 3.609375q2.8125 3.609375 2.8125 9.3125l0 18.109375q0 0.828125 -0.546875 1.375q-0.546875 0.546875 -1.375 0.546875q-0.828125 0 -1.375 -0.546875q-0.546875 -0.546875 -0.546875 -1.375l0 -18.109375q0 -4.15625 -1.984375 -6.75q-1.984375 -2.59375 -6.203125 -2.59375q-2.6875 0 -5.09375 1.28125q-2.390625 1.28125 -3.875 3.421875q-1.46875 2.140625 -1.46875 4.640625l0 18.109375q0 0.828125 -0.546875 1.375q-0.53125 0.546875 -1.375 0.546875q-0.828125 0 -1.375 -0.546875q-0.53125 -0.546875 -0.53125 -1.375l0 -43.515625q0 -0.828125 0.53125 -1.375q0.546875 -0.546875 1.375 -0.546875q0.84375 0 1.375 0.546875q0.546875 0.546875 0.546875 1.375l0 18.75q1.734375 -2.75 4.796875 -4.5q3.078125 -1.765625 6.28125 -1.765625zm49.086304 14.71875q0 0.765625 -0.578125 1.3125q-0.578125 0.53125 -1.34375 0.53125l-24.1875 0q0 3.84375 1.5625 6.890625q1.578125 3.03125 4.484375 4.796875q2.90625 1.765625 6.875 1.765625q3.078125 0 5.5 -1.28125q2.4375 -1.28125 3.90625 -3.265625q0.703125 -0.578125 1.34375 -0.578125q0.640625 0 1.15625 0.515625q0.515625 0.5 0.515625 1.140625q0 0.703125 -0.640625 1.34375q-2.046875 2.5 -5.15625 4.109375q-3.09375 1.59375 -6.5625 1.59375q-4.921875 0 -8.703125 -2.109375q-3.765625 -2.109375 -5.890625 -5.921875q-2.109375 -3.8125 -2.109375 -8.796875q0 -5.25 2.078125 -9.1875q2.09375 -3.9375 5.546875 -6.015625q3.453125 -2.078125 7.359375 -2.078125q3.84375 0 7.203125 1.796875q3.359375 1.78125 5.46875 5.25q2.109375 3.453125 2.171875 8.1875zm-14.84375 -11.53125q-3.71875 0 -6.890625 2.5625q-3.15625 2.5625 -4.0625 7.359375l21.828125 0l0 -0.515625q-0.3125 -2.875 -1.921875 -5.015625q-1.59375 -2.140625 -4.0 -3.265625q-2.390625 -1.125 -4.953125 -1.125zm77.36841 -3.1875q5.765625 0 8.484375 3.546875q2.71875 3.546875 2.71875 9.375l0 18.109375q0 0.828125 -0.546875 1.375q-0.546875 0.546875 -1.375 0.546875q-0.828125 0 -1.375 -0.546875q-0.546875 -0.546875 -0.546875 -1.375l0 -17.921875q0 -4.21875 -2.015625 -6.875q-2.015625 -2.65625 -6.234375 -2.65625q-2.6875 0 -5.09375 1.28125q-2.390625 1.28125 -3.875 3.484375q-1.46875 2.203125 -1.46875 4.765625l0 17.921875q0 0.828125 -0.546875 1.375q-0.53125 0.546875 -1.375 0.546875q-0.828125 0 -1.375 -0.546875q-0.53125 -0.546875 -0.53125 -1.375l0 -18.109375q0 -4.15625 -1.921875 -6.75q-1.921875 -2.59375 -6.015625 -2.59375q-2.625 0 -4.96875 1.28125q-2.328125 1.28125 -3.78125 3.421875q-1.4375 2.140625 -1.4375 4.640625l0 18.109375q0 0.828125 -0.546875 1.375q-0.53125 0.546875 -1.375 0.546875q-0.828125 0 -1.375 -0.546875q-0.53125 -0.546875 -0.53125 -1.375l0 -28.671875q0 -0.828125 0.53125 -1.375q0.546875 -0.546875 1.375 -0.546875q0.84375 0 1.375 0.546875q0.546875 0.546875 0.546875 1.375l0 3.71875q1.734375 -2.625 4.671875 -4.34375q2.953125 -1.734375 6.21875 -1.734375q3.703125 0 6.390625 1.796875q2.6875 1.78125 3.84375 5.234375q1.34375 -2.8125 4.921875 -4.921875q3.59375 -2.109375 7.234375 -2.109375zm51.46167 16.5625q0 4.8125 -2.109375 8.71875q-2.109375 3.890625 -5.828125 6.109375q-3.71875 2.203125 -8.25 2.203125q-4.546875 0 -8.265625 -2.203125q-3.703125 -2.21875 -5.828125 -6.109375q-2.109375 -3.90625 -2.109375 -8.71875q0 -4.796875 2.109375 -8.6875q2.125 -3.90625 5.828125 -6.140625q3.71875 -2.25 8.265625 -2.25q4.53125 0 8.25 2.25q3.71875 2.234375 5.828125 6.140625q2.109375 3.890625 2.109375 8.6875zm-3.84375 0q0 -3.828125 -1.609375 -6.90625q-1.59375 -3.078125 -4.4375 -4.828125q-2.84375 -1.765625 -6.296875 -1.765625q-3.46875 0 -6.28125 1.765625q-2.8125 1.75 -4.453125 4.828125q-1.625 3.078125 -1.625 6.90625q0 3.78125 1.625 6.859375q1.640625 3.0625 4.453125 4.828125q2.8125 1.765625 6.28125 1.765625q3.453125 0 6.296875 -1.734375q2.84375 -1.734375 4.4375 -4.796875q1.609375 -3.078125 1.609375 -6.921875zm36.423706 -16.953125q0.640625 0 1.203125 0.453125q0.578125 0.4375 0.578125 1.140625q0 0.578125 -0.25 1.09375l-12.546875 29.4375q-0.25 0.515625 -0.734375 0.875q-0.484375 0.34375 -0.984375 0.34375q-0.640625 0.0625 -1.15625 -0.25q-0.515625 -0.328125 -0.765625 -0.96875l-12.609375 -29.4375q0 -0.125 -0.109375 -0.375q-0.09375 -0.265625 -0.09375 -0.515625q0 -0.765625 0.515625 -1.3125q0.515625 -0.546875 1.46875 -0.546875q0.578125 0 1.0625 0.359375q0.484375 0.34375 0.734375 0.921875l10.875 25.921875l10.953125 -25.921875q0.25 -0.578125 0.734375 -0.921875q0.484375 -0.359375 1.125 -0.296875zm12.855957 31.421875q0 0.828125 -0.546875 1.375q-0.53125 0.546875 -1.375 0.546875q-0.828125 0 -1.375 -0.546875q-0.546875 -0.546875 -0.546875 -1.375l0 -29.4375q0 -0.828125 0.546875 -1.375q0.546875 -0.546875 1.375 -0.546875q0.84375 0 1.375 0.546875q0.546875 0.546875 0.546875 1.375l0 29.4375zm-1.59375 -35.703125q-1.28125 0 -1.984375 -0.609375q-0.703125 -0.609375 -0.703125 -1.765625l0 -0.640625q0 -1.15625 0.734375 -1.765625q0.734375 -0.609375 2.015625 -0.609375q2.5625 0 2.5625 2.375l0 0.640625q0 1.15625 -0.671875 1.765625q-0.671875 0.609375 -1.953125 0.609375zm27.008484 4.15625q5.953125 0 8.734375 3.484375q2.78125 3.484375 2.78125 9.25l0 18.8125q0 0.828125 -0.578125 1.375q-0.578125 0.546875 -1.34375 0.546875q-0.828125 0 -1.375 -0.546875q-0.546875 -0.546875 -0.546875 -1.375l0 -18.625q0 -4.15625 -2.078125 -6.75q-2.078125 -2.59375 -6.4375 -2.59375q-2.75 0 -5.21875 1.28125q-2.453125 1.28125 -4.0 3.421875q-1.53125 2.140625 -1.53125 4.640625l0 18.625q0 0.828125 -0.546875 1.375q-0.53125 0.546875 -1.375 0.546875q-0.828125 0 -1.375 -0.546875q-0.53125 -0.546875 -0.53125 -1.375l0 -28.671875q0 -0.828125 0.53125 -1.375q0.546875 -0.546875 1.375 -0.546875q0.84375 0 1.375 0.546875q0.546875 0.546875 0.546875 1.375l0 3.515625q1.734375 -2.75 4.96875 -4.5625q3.234375 -1.828125 6.625 -1.828125zm49.210693 0.765625q0.828125 0 1.375 0.546875q0.546875 0.546875 0.546875 1.4375l0 27.703125q0 5.0 -2.078125 8.546875q-2.078125 3.5625 -5.703125 5.40625q-3.609375 1.859375 -8.28125 1.859375q-2.25 0 -4.71875 -0.578125q-2.453125 -0.578125 -4.21875 -1.46875q-1.75 -0.890625 -2.015625 -1.859375q-0.4375 -0.4375 -0.4375 -1.015625q0 -0.640625 0.578125 -1.03125q0.25 -0.1875 0.640625 -0.1875q0.375 0 1.46875 0.453125l1.34375 0.578125q3.96875 1.53125 7.421875 1.53125q5.6875 0 8.921875 -3.234375q3.234375 -3.234375 3.234375 -8.734375l0 -3.96875q-1.59375 3.453125 -5.0625 5.40625q-3.453125 1.953125 -7.21875 1.953125q-4.421875 0 -7.984375 -2.203125q-3.546875 -2.21875 -5.59375 -6.109375q-2.046875 -3.90625 -2.046875 -8.78125q0 -4.796875 2.046875 -8.703125q2.046875 -3.90625 5.59375 -6.109375q3.5625 -2.203125 7.921875 -2.203125q4.03125 0 7.390625 2.015625q3.359375 2.015625 4.953125 4.828125l0 -4.09375q0 -0.828125 0.546875 -1.40625q0.546875 -0.578125 1.375 -0.578125zm-13.890625 29.765625q3.53125 0 6.3125 -1.703125q2.78125 -1.703125 4.34375 -4.796875q1.578125 -3.109375 1.578125 -7.015625q0 -3.90625 -1.578125 -6.96875q-1.5625 -3.078125 -4.34375 -4.765625q-2.78125 -1.703125 -6.3125 -1.703125q-3.453125 0 -6.234375 1.765625q-2.78125 1.75 -4.359375 4.828125q-1.5625 3.078125 -1.5625 6.84375q0 3.84375 1.5625 6.921875q1.578125 3.0625 4.359375 4.828125q2.78125 1.765625 6.234375 1.765625zm58.94879 -30.53125q4.21875 0 7.671875 2.171875q3.46875 2.171875 5.40625 6.046875q1.953125 3.875 1.953125 8.734375q0 4.796875 -1.953125 8.734375q-1.9375 3.9375 -5.375 6.1875q-3.421875 2.234375 -7.640625 2.234375q-3.640625 0 -6.75 -1.828125q-3.109375 -1.828125 -5.03125 -4.828125l0 4.21875q0 0.84375 -0.546875 1.421875q-0.53125 0.5625 -1.375 0.5625q-0.828125 0 -1.375 -0.5625q-0.53125 -0.578125 -0.53125 -1.421875l0 -43.578125q0 -0.828125 0.53125 -1.375q0.546875 -0.546875 1.375 -0.546875q0.84375 0 1.375 0.546875q0.546875 0.546875 0.546875 1.375l0 18.875q1.734375 -3.125 4.859375 -5.046875q3.140625 -1.921875 6.859375 -1.921875zm-0.328125 30.53125q3.328125 0 5.984375 -1.796875q2.65625 -1.796875 4.15625 -4.890625q1.515625 -3.109375 1.515625 -6.890625q0 -3.84375 -1.515625 -6.875q-1.5 -3.046875 -4.15625 -4.765625q-2.65625 -1.734375 -5.984375 -1.734375q-3.390625 0 -6.078125 1.703125q-2.6875 1.6875 -4.15625 4.765625q-1.46875 3.0625 -1.46875 6.90625q0 3.84375 1.5 6.953125q1.5 3.09375 4.15625 4.859375q2.65625 1.765625 6.046875 1.765625zm53.51233 -13.453125q0 4.8125 -2.109375 8.71875q-2.109375 3.890625 -5.828125 6.109375q-3.71875 2.203125 -8.25 2.203125q-4.546875 0 -8.265625 -2.203125q-3.703125 -2.21875 -5.828125 -6.109375q-2.109375 -3.90625 -2.109375 -8.71875q0 -4.796875 2.109375 -8.6875q2.125 -3.90625 5.828125 -6.140625q3.71875 -2.25 8.265625 -2.25q4.53125 0 8.25 2.25q3.71875 2.234375 5.828125 6.140625q2.109375 3.890625 2.109375 8.6875zm-3.84375 0q0 -3.828125 -1.609375 -6.90625q-1.59375 -3.078125 -4.4375 -4.828125q-2.84375 -1.765625 -6.296875 -1.765625q-3.46875 0 -6.28125 1.765625q-2.8125 1.75 -4.453125 4.828125q-1.625 3.078125 -1.625 6.90625q0 3.78125 1.625 6.859375q1.640625 3.0625 4.453125 4.828125q2.8125 1.765625 6.28125 1.765625q3.453125 0 6.296875 -1.734375q2.84375 -1.734375 4.4375 -4.796875q1.609375 -3.078125 1.609375 -6.921875zm38.267456 -30.96875q0.84375 0 1.375 0.546875q0.546875 0.546875 0.546875 1.375l0 43.515625q0 0.828125 -0.546875 1.375q-0.53125 0.546875 -1.375 0.546875q-0.828125 0 -1.375 -0.546875q-0.53125 -0.546875 -0.53125 -1.375l0 -4.484375q-1.609375 2.953125 -4.78125 5.0q-3.15625 2.046875 -7.0 2.046875q-4.21875 0 -7.65625 -2.203125q-3.421875 -2.21875 -5.40625 -6.109375q-1.984375 -3.90625 -1.984375 -8.78125q0 -4.796875 1.984375 -8.703125q1.984375 -3.90625 5.40625 -6.109375q3.4375 -2.203125 7.59375 -2.203125q3.765625 0 6.96875 1.890625q3.203125 1.875 4.875 4.890625l0 -18.75q0 -0.828125 0.53125 -1.375q0.546875 -0.546875 1.375 -0.546875zm-13.3125 44.421875q3.328125 0 5.984375 -1.734375q2.65625 -1.734375 4.15625 -4.828125q1.515625 -3.109375 1.515625 -6.953125q0 -3.765625 -1.515625 -6.84375q-1.5 -3.078125 -4.15625 -4.828125q-2.65625 -1.765625 -5.984375 -1.765625q-3.328125 0 -5.984375 1.765625q-2.65625 1.75 -4.15625 4.828125q-1.5 3.078125 -1.5 6.84375q0 3.84375 1.5 6.921875q1.5 3.0625 4.15625 4.828125q2.65625 1.765625 5.984375 1.765625zm49.66858 -30.34375q0.828125 0 1.375 0.546875q0.546875 0.546875 0.546875 1.375l0 28.21875q0 5.0625 -1.984375 8.640625q-1.984375 3.59375 -5.5 5.4375q-3.515625 1.859375 -7.9375 1.859375q-2.6875 0 -5.03125 -0.578125q-2.328125 -0.578125 -3.859375 -1.53125q-1.34375 -0.828125 -1.34375 -1.859375q0 -0.125 0.125 -0.640625q0.1875 -0.640625 0.625 -0.96875q0.453125 -0.3125 0.96875 -0.3125q0.390625 0 0.765625 0.203125q4.09375 2.234375 7.8125 2.234375q5.3125 0 8.40625 -3.328125q3.109375 -3.328125 3.109375 -9.09375l0 -2.234375q-1.59375 2.6875 -4.609375 4.328125q-3.0 1.625 -6.515625 1.625q-5.578125 0 -8.453125 -3.328125q-2.875 -3.328125 -2.875 -9.03125l0 -19.640625q0 -0.828125 0.53125 -1.375q0.546875 -0.546875 1.375 -0.546875q0.84375 0 1.375 0.546875q0.546875 0.546875 0.546875 1.375l0 19.078125q0 4.59375 2.015625 6.96875q2.015625 2.375 6.3125 2.375q2.625 0 5.015625 -1.3125q2.40625 -1.3125 3.84375 -3.453125q1.4375 -2.15625 1.4375 -4.578125l0 -19.078125q0 -0.828125 0.546875 -1.375q0.546875 -0.546875 1.375 -0.546875z" fill-rule="nonzero"/></g></svg>